<svg id="Email_Icon" data-name="Email Icon" xmlns="http://www.w3.org/2000/svg" width="21" height="15.488" viewBox="0 0 21 15.488">
  <g id="Group_131" data-name="Group 131" transform="translate(0 4.368)">
    <g id="Group_130" data-name="Group 130" transform="translate(0 0)">
      <path id="Path_411" data-name="Path 411" d="M11.107,153.231a1.192,1.192,0,0,1-1.24,0L0,147.2v8.017a3.1,3.1,0,0,0,3.1,3.1H17.9a3.1,3.1,0,0,0,3.1-3.1V147.2Z" transform="translate(0 -147.2)" fill="#4667ee"/>
    </g>
  </g>
  <g id="Group_133" data-name="Group 133" transform="translate(0.099)">
    <g id="Group_132" data-name="Group 132" transform="translate(0 0)">
      <path id="Path_412" data-name="Path 412" d="M19.849,57.088H5.048a3.082,3.082,0,0,0-3,2.432l10.413,6.354L22.849,59.52A3.082,3.082,0,0,0,19.849,57.088Z" transform="translate(-2.048 -57.088)" fill="#4667ee"/>
    </g>
  </g>
</svg>
