<svg xmlns="http://www.w3.org/2000/svg" width="21" height="21.11" viewBox="0 0 21 21.11">
  <g id="Facebook_Icon" data-name="Facebook Icon" transform="translate(-78 -492)">
    <path id="Path_405" data-name="Path 405" d="M14.5,4A10.5,10.5,0,1,0,25,14.5,10.5,10.5,0,0,0,14.5,4Z" transform="translate(74 488)" fill="#1a7af1"/>
    <path id="Path_406" data-name="Path 406" d="M20.967,20.6h2.385l.375-2.582h-2.76V16.61c0-1.072.329-2.024,1.271-2.024H23.75V12.334a12.081,12.081,0,0,0-1.89-.122c-2.218,0-3.519,1.248-3.519,4.093v1.718H16.06V20.6h2.28v7.1a7.876,7.876,0,0,0,2.626.021Z" transform="translate(68.94 485.288)" fill="#fff"/>
  </g>
</svg>
