<svg xmlns="http://www.w3.org/2000/svg" width="20.5" height="20.5" viewBox="0 0 20.5 20.5">
  <g id="Google_Icon" data-name="Google Icon" transform="translate(-4 -4)">
    <path id="Path_407" data-name="Path 407" d="M24.3,12.243h-.826V12.2H14.25v4.1h5.793A6.155,6.155,0,1,1,18.33,9.657l2.9-2.9A10.239,10.239,0,1,0,24.5,14.25,10.32,10.32,0,0,0,24.3,12.243Z" transform="translate(0 0)" fill="#ffc107"/>
    <path id="Path_408" data-name="Path 408" d="M6.306,9.479l3.368,2.47a6.138,6.138,0,0,1,9.781-2.291l2.9-2.9A10.23,10.23,0,0,0,6.306,9.479Z" transform="translate(-1.124 0)" fill="#ff3d00"/>
    <path id="Path_409" data-name="Path 409" d="M15.32,36.226a10.2,10.2,0,0,0,6.872-2.661L19.02,30.881a6.134,6.134,0,0,1-9.482-2.827L6.195,30.629A10.242,10.242,0,0,0,15.32,36.226Z" transform="translate(-1.07 -11.726)" fill="#4caf50"/>
    <path id="Path_410" data-name="Path 410" d="M34.051,20.043h-.826V20H24v4.1h5.793A6.171,6.171,0,0,1,27.7,26.955h0l3.172,2.684A9.915,9.915,0,0,0,34.25,22.05,10.32,10.32,0,0,0,34.051,20.043Z" transform="translate(-9.75 -7.8)" fill="#1976d2"/>
  </g>
</svg>
