<svg id="idea" xmlns="http://www.w3.org/2000/svg" width="30" height="30" viewBox="0 0 30 30">
  <g id="Group_197" data-name="Group 197">
    <g id="Group_196" data-name="Group 196">
      <path id="Path_597" data-name="Path 597" d="M151.039,143.263a6.982,6.982,0,0,0-6.1-6.083,7.313,7.313,0,0,0-.827-.047,6.964,6.964,0,0,0-4.9,11.907,5.485,5.485,0,0,1,1.691,3.9v.8h6.429v-.809a5.364,5.364,0,0,1,1.631-3.833,6.942,6.942,0,0,0,2.071-5.835h0Z" transform="translate(-129.123 -129.098)" fill="#232323"/>
      <path id="Path_598" data-name="Path 598" d="M231.654,494.785a1.61,1.61,0,0,0,1.515-1.071h-3.031A1.61,1.61,0,0,0,231.654,494.785Z" transform="translate(-216.654 -464.785)" fill="#232323"/>
      <path id="Path_599" data-name="Path 599" d="M210.286,440.464a.536.536,0,0,0,.536.536h4.286a.536.536,0,0,0,.536-.536v-1.607h-5.357Z" transform="translate(-197.965 -413.143)" fill="#232323"/>
      <path id="Path_600" data-name="Path 600" d="M238.785,4.821a1.071,1.071,0,0,0,1.071-1.071V1.071a1.071,1.071,0,1,0-2.143,0V3.75A1.071,1.071,0,0,0,238.785,4.821Z" transform="translate(-223.785)" fill="#232323"/>
      <path id="Path_601" data-name="Path 601" d="M66.208,67.723a1.1,1.1,0,0,0,1.515,0,1.071,1.071,0,0,0,0-1.515l-1.894-1.894a1.071,1.071,0,1,0-1.515,1.515Z" transform="translate(-60.25 -60.25)" fill="#232323"/>
      <path id="Path_602" data-name="Path 602" d="M4.821,238.785a1.071,1.071,0,0,0-1.071-1.071H1.071a1.071,1.071,0,1,0,0,2.143H3.75A1.071,1.071,0,0,0,4.821,238.785Z" transform="translate(0 -223.785)" fill="#232323"/>
      <path id="Path_603" data-name="Path 603" d="M67.244,379.115a1.071,1.071,0,0,0-1.036.279l-1.894,1.894a1.071,1.071,0,0,0,0,1.515,1.1,1.1,0,0,0,1.515,0l1.894-1.894a1.072,1.072,0,0,0-.48-1.794Z" transform="translate(-60.251 -356.867)" fill="#232323"/>
      <path id="Path_604" data-name="Path 604" d="M380.909,379.394a1.071,1.071,0,1,0-1.515,1.515l1.894,1.894a1.1,1.1,0,0,0,1.515,0,1.071,1.071,0,0,0,0-1.515Z" transform="translate(-356.867 -356.867)" fill="#232323"/>
      <path id="Path_605" data-name="Path 605" d="M433.464,237.714h-2.679a1.071,1.071,0,1,0,0,2.143h2.679a1.071,1.071,0,1,0,0-2.143Z" transform="translate(-404.535 -223.785)" fill="#232323"/>
      <path id="Path_606" data-name="Path 606" d="M380.93,67.723l1.894-1.894a1.071,1.071,0,0,0-1.515-1.515l-1.894,1.894a1.071,1.071,0,0,0,0,1.515A1.1,1.1,0,0,0,380.93,67.723Z" transform="translate(-356.888 -60.25)" fill="#232323"/>
    </g>
  </g>
</svg>
